<?xml version="1.0" encoding="utf-8"?>
<!-- Generator: Adobe Illustrator 22.1.0, SVG Export Plug-In . SVG Version: 6.00 Build 0)  -->
<svg version="1.1"
	 id="svg5" inkscape:version="1.1 (c4e8f9ed74, 2021-05-24)" sodipodi:docname="Logo.svg" xmlns:inkscape="http://www.inkscape.org/namespaces/inkscape" xmlns:sodipodi="http://sodipodi.sourceforge.net/DTD/sodipodi-0.dtd" xmlns:svg="http://www.w3.org/2000/svg"
	 xmlns="http://www.w3.org/2000/svg" xmlns:xlink="http://www.w3.org/1999/xlink" x="0px" y="0px" viewBox="0 0 771.3 326.7"
	 style="enable-background:new 0 0 771.3 326.7;" xml:space="preserve">
<style type="text/css">
	.st0{fill:#FFFFFF;}
	.st1{font-family:'BrushScriptStd';}
	.st2{font-size:48.245px;}
</style>
<sodipodi:namedview  bordercolor="#666666" borderopacity="1.0" id="namedview7" inkscape:current-layer="layer1" inkscape:cx="343.61221" inkscape:cy="356.22864" inkscape:document-units="mm" inkscape:pagecheckerboard="0" inkscape:pageopacity="0.0" inkscape:pageshadow="2" inkscape:snap-global="true" inkscape:window-height="1002" inkscape:window-maximized="1" inkscape:window-width="1920" inkscape:window-x="0" inkscape:window-y="0" inkscape:zoom="0.6737246" pagecolor="#ffffff" showgrid="false">
	</sodipodi:namedview>
<g id="layer1" transform="translate(-3.9215577,-5.3089057)" inkscape:groupmode="layer" inkscape:label="Layer 1">
	<g>
		<defs>
			<path id="SVGID_1_" d="M82,76.5c-12.5,0-22.1,3.1-28.8,9.3c-6.7,6.2-10,15.1-10,26.6c0,9.2,2.4,16.5,7.2,22
				c4.8,5.4,12.4,9.4,22.8,11.9l10.3,2.6c6.3,1.6,10.5,3.3,12.6,5.3c2.1,2,3.2,4.8,3.2,8.4c0,4-1.6,7.1-4.7,9.3
				c-3.1,2.2-7.6,3.3-13.4,3.3c-5.7,0-11.7-1-17.9-3c-6.2-2-12.5-5-19.2-8.9v25.2c6.6,2.7,13.2,4.8,19.9,6.2s13.2,2.1,19.8,2.1
				c13.9,0,24.3-3.1,31-9.3c6.8-6.3,10.2-15.8,10.2-28.6c0-9.7-2.4-17.2-7.3-22.5s-13.1-9.2-24.6-11.8L81.8,122
				c-5.4-1.2-9.2-2.7-11.3-4.4c-2-1.8-3.1-4.2-3.1-7.3c0-4.1,1.5-7.2,4.6-9.2c3.1-2,7.8-3,14.2-3c4.8,0,9.9,0.7,15.3,2.2
				c5.4,1.4,11,3.6,16.7,6.4V82.3c-6.4-1.9-12.7-3.3-18.7-4.3C93.5,77,87.7,76.5,82,76.5L82,76.5z M414.4,76.5
				c-16.6,0-29.7,5.3-39.2,16c-9.4,10.7-14.2,25.4-14.2,44.2c0,18.7,4.7,33.4,14.2,44.1c9.5,10.7,22.5,16,39.2,16
				c16.7,0,29.7-5.3,39.2-16c9.4-10.7,14.2-25.4,14.2-44.1c0-18.8-4.7-33.5-14.2-44.2C444.1,81.9,431,76.5,414.4,76.5z M174.6,78.6
				l-38.4,115.9H163l6.6-21.1h41.8l6.5,21.1h26.9L206.4,78.6H174.6z M258.6,78.6v115.9H303c13.8,0,24.1-2.7,30.8-8.2
				c6.8-5.5,10.1-13.8,10.1-25c0-7.3-1.6-13.5-4.7-18.5c-3.1-5-7.6-8.5-13.3-10.3c4.5-1.9,7.9-4.8,10.3-8.8c2.4-4,3.5-8.8,3.5-14.4
				c0-10.7-3.2-18.5-9.7-23.4c-6.4-4.9-16.9-7.3-31.3-7.3H258.6z M487.9,78.6v115.9h26.7v-43.9h7.6c4.4,0,7.8,1.1,10.4,3.2
				c2.6,2.1,5.2,6.1,7.8,11.9l12.6,28.8h28.5L567,161.6c-3-6.7-5.9-11.6-8.8-14.9c-2.9-3.3-6.1-5.4-9.8-6.4
				c6.7-2.3,11.6-6,14.9-10.9c3.3-4.9,5-11.2,5-18.9c0-11.1-3.2-19.2-9.6-24.3c-6.3-5.1-16.3-7.7-30-7.7H487.9z M414.4,98.2
				c8.2,0,14.5,3.4,19,10.1c4.5,6.7,6.7,16.2,6.7,28.4c0,12.2-2.2,21.6-6.7,28.3c-4.5,6.7-10.8,10.1-19,10.1
				c-8.1,0-14.5-3.4-19-10.1c-4.5-6.7-6.7-16.2-6.7-28.3c0-12.2,2.2-21.7,6.7-28.4C399.9,101.6,406.2,98.2,414.4,98.2z M285.3,99
				h14.8c4.2,0,7.4,1.1,9.6,3.2c2.2,2.1,3.3,5.1,3.3,9.1c0,4-1.1,7.1-3.3,9.2c-2.2,2.1-5.4,3.1-9.6,3.1h-14.8V99z M514.6,100.3h11.3
				c5.6,0,9.6,1.1,12,3.4c2.5,2.3,3.7,6.1,3.7,11.3c0,5.3-1.2,9.2-3.7,11.5c-2.4,2.3-6.4,3.5-12,3.5h-11.3V100.3z M190.5,105.8
				l14.2,46.1h-28.4L190.5,105.8z M285.3,143.9H301c5.4,0,9.5,1.3,12.2,3.8c2.7,2.5,4,6.2,4,11.3c0,5.1-1.4,9-4.1,11.5
				c-2.7,2.5-6.7,3.8-12.1,3.8h-15.7V143.9z"/>
		</defs>
		<clipPath id="SVGID_2_">
			<use xlink:href="#SVGID_1_"  style="overflow:visible;"/>
		</clipPath>
		<g style="clip-path:url(#SVGID_2_);enable-background:new    ;">
			
				<image style="overflow:visible;" width="2800" height="1220" id="image63004" xlink:href="BB2DE506.png"  transform="matrix(0.537 0 0 0.4656 -447.88 -146.3031)">
			</image>
		</g>
	</g>
	<g>
		<defs>
			<path id="SVGID_3_" d="M268.8,219.6c-12.9,0-22.6,4.5-29.3,13.4c-6.6,8.9-9.9,22.2-9.9,39.6c0,17.4,3.3,30.6,9.9,39.6
				c6.6,8.9,16.4,13.4,29.3,13.4c12.9,0,22.7-4.5,29.3-13.4c6.6-8.9,9.9-22.1,9.9-39.6c0-17.5-3.3-30.7-9.9-39.6
				C291.5,224,281.7,219.6,268.8,219.6z M556.5,219.6c-15,0-26.5,4.5-34.4,13.6c-7.9,9.1-11.9,22.2-11.9,39.4
				c0,17.2,4,30.3,11.9,39.4s19.4,13.6,34.4,13.6c4.2,0,8.3-0.4,12.1-1.2c3.8-0.8,7.5-2.1,11-3.7l0-22.5c-3.8,3.2-7.5,5.5-11,7.1
				c-3.5,1.5-7.2,2.2-11,2.2c-8.1,0-14.2-2.9-18.3-8.8c-4.1-5.9-6.1-14.6-6.1-26.1c0-11.5,2-20.2,6.1-26.1
				c4.1-5.9,10.2-8.8,18.3-8.8c3.8,0,7.4,0.8,11,2.3c3.6,1.5,7.3,3.8,11,7v-22.5c-3.4-1.6-7-2.9-10.9-3.7
				C564.8,220,560.8,219.6,556.5,219.6L556.5,219.6z M45.4,221.4v17.7l28.3,0v84.5l22,0v-84.5l28.3,0v-17.7L45.4,221.4z
				 M140.7,221.4v102.2h22v-40.4l7,0c5.3,0,10,3.9,13.9,11.6c0.6,1.3,1.2,2.3,1.6,3l13.4,25.8l24.2,0l-20.2-36.8
				c-2.3-4.3-4.3-7.2-6-8.6c-1.6-1.5-3.5-2.5-5.7-2.9c7-0.8,12.4-3.3,16.1-7.5c3.7-4.2,5.6-9.7,5.6-16.8c0-10.5-3.1-18.1-9.4-22.7
				c-6.2-4.7-16.5-7-30.8-7L140.7,221.4z M326.9,221.4v102.2h22v-38.3l8.2,0c15.4,0,26.4-2.5,33.1-7.5c6.8-5,10.2-13.2,10.2-24.4
				c0-11.3-3.4-19.4-10.2-24.4c-6.7-5-17.8-7.5-33.1-7.5L326.9,221.4z M419.7,221.4l0,17.8l22.2,0v66.6h-22.2v17.8h66.4l0-17.8
				l-22.2,0v-66.6l22.2,0l0-17.8H419.7z M623.5,221.4l-30.1,102.2h22l6.7-25.3h29.5l6.9,25.3h22l-30.1-102.2L623.5,221.4z
				 M699.8,221.4l0,102.2l69.1,0v-17.8l-47.1,0v-84.4H699.8z M268.8,237.7c5.7,0,9.8,2.8,12.4,8.3c2.6,5.5,3.9,14.4,3.9,26.6
				c0,12.2-1.3,21.1-3.9,26.6c-2.6,5.5-6.7,8.2-12.4,8.2c-5.6,0-9.7-2.7-12.3-8.2c-2.6-5.5-3.9-14.4-3.9-26.6
				c0-12.3,1.3-21.2,3.9-26.6C259,240.5,263.1,237.7,268.8,237.7L268.8,237.7z M162.7,238.4h10.4c6.1,0,10.4,1.1,13,3.2
				c2.6,2.1,3.9,5.7,3.9,10.7c0,5-1.3,8.6-4,10.7c-2.6,2.1-6.9,3.2-12.9,3.2l-10.4,0V238.4z M348.9,238.4h9c7.2,0,12.3,1.1,15.2,3.4
				c2.9,2.2,4.4,6.1,4.4,11.6c0,5.5-1.5,9.4-4.4,11.6c-2.9,2.2-7.9,3.4-15.2,3.4h-9V238.4z M636.9,239.9l10.5,41.8l-20.8,0
				L636.9,239.9z"/>
		</defs>
		<clipPath id="SVGID_4_">
			<use xlink:href="#SVGID_3_"  style="overflow:visible;"/>
		</clipPath>
		<g style="clip-path:url(#SVGID_4_);enable-background:new    ;">
			
				<image style="overflow:visible;" width="1575" height="2250" id="image110439" xlink:href="BB2DE50A.png"  transform="matrix(-1.842415e-02 -0.4658 0.5037 -1.873600e-02 -234.1508 646.5966)">
			</image>
		</g>
	</g>
	<text transform="matrix(1.1138 -0.3095 0.3454 0.9385 8.5647 77.8497)" class="st0 st1 st2">Pizzaria</text>
</g>
</svg>
